<?xml version="1.0" encoding="UTF-8"?><svg id="Icon" xmlns="http://www.w3.org/2000/svg" viewBox="0 0 256 256"><defs><style>.cls-1{opacity:.5;}.cls-1,.cls-2{fill:none;stroke:#fff;stroke-miterlimit:10;stroke-width:19.43px;}.cls-3{fill:#fff;stroke-width:0px;}</style></defs><g id="Icon-2"><path class="cls-2" d="M139.17,169.65c11.14-10.39,18.05-25.21,18.05-41.62s-7.01-31.38-18.2-41.77"/><path class="cls-2" d="M170.74,54.57c19.25,18.55,31.23,44.61,31.23,73.45s-11.94,54.8-31.13,73.3"/><path class="cls-1" d="M202.42,22.99c27.35,26.66,44.31,63.85,44.31,105.03s-16.91,78.33-44.21,104.98"/><path class="cls-3" d="M79.31,39.86l-44.06,44.06H0v88.12h35.25l44.06,44.06,8.81.04V39.9l-8.81-.04ZM70.5,180.32l-26.44-25.92-26.44-.26v-52.61h26.44l26.44-26.44v105.22Z"/></g></svg>