<?xml version="1.0" encoding="UTF-8"?><svg id="microphone-muted" xmlns="http://www.w3.org/2000/svg" viewBox="0 0 32 32"><defs><style>.cls-1{fill:#000;stroke-width:0px;}</style></defs><g id="Icon"><polygon class="cls-1" points="8 19.05 8 15 6 15 6 21.05 8 19.05"/><polygon class="cls-1" points="23 21 20 24 12.95 24 10.95 26 14 26 14 28 11 28 11 30 20 30 20 28 17 28 17 26 21 26 25 22 25 15 23 15 23 21"/><polygon class="cls-1" points="12 15.05 12 6 13 5 18 5 19 6 19 8.05 21 6.05 21 5 19 3 12 3 10 5 10 17.05 12 15.05"/><polygon class="cls-1" points="19 17.95 19 19 18 20 16.95 20 14.95 22 19 22 21 20 21 15.95 19 17.95"/><rect class="cls-1" x="-4" y="15.5" width="39" height="2" transform="translate(-7.13 15.79) rotate(-45)"/></g></svg>