<?xml version="1.0" encoding="UTF-8"?><svg id="settings-thin" xmlns="http://www.w3.org/2000/svg" viewBox="0 0 32 32"><defs><style>.cls-1{fill:#000;stroke:#000;stroke-miterlimit:10;stroke-width:.5px;}</style></defs><path class="cls-1" d="M27.67,13.27l-1.82-.31c-.19-.61-.43-1.21-.73-1.77l1.08-1.5c.46-.64.39-1.52-.17-2.07l-1.62-1.62c-.3-.3-.71-.47-1.14-.47-.34,0-.66.1-.93.3l-1.51,1.08c-.59-.31-1.2-.56-1.84-.75l-.3-1.8c-.13-.78-.8-1.34-1.59-1.34h-2.29c-.79,0-1.46.56-1.59,1.34l-.32,1.85c-.61.19-1.2.44-1.77.74l-1.49-1.08c-.27-.2-.6-.3-.93-.3-.43,0-.84.17-1.14.47l-1.62,1.62c-.55.55-.63,1.43-.17,2.07l1.09,1.53c-.3.57-.54,1.16-.72,1.78l-1.8.3c-.78.13-1.34.8-1.34,1.59v2.29c0,.79.56,1.46,1.34,1.59l1.85.32c.19.61.44,1.2.74,1.77l-1.07,1.49c-.46.64-.39,1.52.17,2.07l1.62,1.62c.3.3.71.47,1.14.47.34,0,.66-.1.93-.3l1.53-1.09c.55.29,1.12.52,1.72.71l.3,1.82c.13.78.8,1.34,1.59,1.34h2.29c.79,0,1.46-.56,1.59-1.34l.31-1.82c.61-.19,1.21-.43,1.77-.73l1.5,1.08c.27.2.6.3.93.3h0c.43,0,.83-.17,1.14-.47l1.62-1.62c.55-.55.63-1.43.17-2.07l-1.08-1.51c.3-.57.55-1.16.73-1.77l1.82-.3c.78-.13,1.34-.8,1.34-1.59v-2.29c.01-.79-.55-1.46-1.33-1.59ZM27.54,17.14c0,.07-.05.13-.12.14l-2.28.38c-.29.05-.52.26-.59.54-.21.8-.52,1.56-.95,2.28-.15.25-.14.56.03.8l1.34,1.89c.04.05.03.14-.02.18l-1.62,1.62s-.08.04-.1.04c-.03,0-.06-.01-.08-.03l-1.88-1.34c-.23-.17-.55-.18-.8-.03-.71.42-1.48.74-2.28.95-.28.07-.49.3-.54.59l-.39,2.28c-.01.07-.07.12-.14.12h-2.29c-.07,0-.13-.05-.14-.12l-.38-2.28c-.05-.29-.26-.52-.54-.59-.78-.2-1.53-.51-2.23-.91-.11-.07-.24-.1-.37-.1-.15,0-.3.04-.42.14l-1.9,1.35s-.05.03-.08.03c-.02,0-.07,0-.1-.04l-1.62-1.62s-.05-.12-.02-.18l1.34-1.87c.17-.24.18-.55.03-.8-.42-.71-.75-1.47-.96-2.27-.08-.28-.3-.49-.59-.54l-2.3-.39c-.07-.01-.12-.07-.12-.14v-2.29c0-.07.05-.13.12-.14l2.26-.38c.29-.05.52-.26.59-.54.2-.8.51-1.57.93-2.28.15-.25.13-.56-.04-.79l-1.35-1.9c-.04-.05-.03-.14.02-.18l1.62-1.62s.08-.04.1-.04c.03,0,.06.01.08.03l1.87,1.34c.24.17.55.18.8.03.71-.42,1.47-.75,2.27-.96.28-.08.49-.3.54-.59l.39-2.3c.01-.07.07-.12.14-.12h2.29c.07,0,.13.05.14.12l.38,2.26c.05.29.26.52.54.59.82.21,1.6.53,2.33.96.25.15.56.14.8-.03l1.87-1.35s.05-.03.08-.03c.02,0,.07,0,.1.04l1.62,1.62s.05.12.02.18l-1.34,1.88c-.17.23-.18.55-.03.8.42.71.74,1.48.95,2.28.07.28.3.49.59.54l2.28.39c.07.01.12.07.12.14v2.29h0Z"/><path class="cls-1" d="M16.07,10.41c-3.08,0-5.58,2.5-5.58,5.58s2.5,5.58,5.58,5.58,5.58-2.5,5.58-5.58-2.5-5.58-5.58-5.58ZM16.07,20.12c-2.28,0-4.12-1.85-4.12-4.12s1.85-4.12,4.12-4.12,4.12,1.85,4.12,4.12-1.85,4.12-4.12,4.12Z"/></svg>