<?xml version="1.0" encoding="UTF-8"?><svg id="settings-thin" xmlns="http://www.w3.org/2000/svg" viewBox="0 0 32 32"><defs><style>.cls-1{fill:#000;stroke-width:0px;}</style></defs><path class="cls-1" d="M25.87,13.69l-1.54-.26c-.16-.52-.37-1.02-.62-1.5l.91-1.27c.39-.54.33-1.28-.15-1.75l-1.37-1.37c-.26-.26-.6-.4-.96-.4-.28,0-.56.09-.79.25l-1.28.91c-.5-.26-1.02-.48-1.55-.64l-.26-1.53c-.11-.66-.68-1.14-1.34-1.14h-1.93c-.67,0-1.23.48-1.34,1.14l-.27,1.56c-.51.16-1.02.37-1.49.63l-1.26-.91c-.23-.17-.51-.25-.79-.25-.36,0-.71.14-.96.4l-1.37,1.37c-.47.47-.53,1.21-.15,1.75l.92,1.29c-.25.48-.45.98-.61,1.5l-1.53.26c-.66.11-1.14.68-1.14,1.34v1.93c0,.67.48,1.23,1.14,1.34l1.56.27c.16.51.37,1.02.63,1.49l-.91,1.26c-.39.54-.33,1.28.15,1.75l1.37,1.37c.26.26.6.4.96.4.28,0,.56-.09.79-.25l1.29-.92c.46.24.95.44,1.45.6l.26,1.54c.11.66.68,1.14,1.34,1.14h1.94c.67,0,1.23-.48,1.34-1.14l.26-1.54c.52-.16,1.02-.37,1.5-.62l1.27.91c.23.17.51.25.79.25h0c.36,0,.7-.14.96-.4l1.37-1.37c.47-.47.53-1.21.15-1.75l-.91-1.28c.25-.48.46-.98.62-1.5l1.54-.26c.66-.11,1.14-.68,1.14-1.34v-1.93c0-.67-.47-1.23-1.13-1.34ZM25.77,16.97c0,.06-.04.11-.1.12l-1.93.32c-.24.04-.44.22-.5.45-.17.68-.44,1.32-.8,1.93-.12.21-.11.47.03.68l1.14,1.6s.03.11-.01.16l-1.37,1.37s-.06.04-.09.04c-.03,0-.05,0-.07-.02l-1.59-1.14c-.2-.14-.46-.15-.68-.03-.6.36-1.25.63-1.93.8-.24.06-.42.26-.45.5l-.33,1.93c0,.06-.06.1-.12.1h-1.93c-.06,0-.11-.04-.12-.1l-.32-1.93c-.04-.24-.22-.44-.45-.5-.66-.17-1.29-.43-1.88-.77-.1-.06-.21-.08-.31-.08-.12,0-.25.04-.36.11l-1.61,1.14s-.05.02-.07.02c-.02,0-.06,0-.09-.04l-1.37-1.37s-.05-.11-.01-.16l1.13-1.59c.14-.2.15-.47.03-.68-.36-.6-.63-1.25-.81-1.92-.06-.23-.26-.41-.5-.45l-1.94-.33c-.06,0-.1-.06-.1-.12v-1.93c0-.06.04-.11.1-.12l1.92-.32c.24-.04.44-.22.5-.46.17-.68.43-1.33.79-1.93.12-.21.11-.47-.03-.67l-1.14-1.61s-.03-.11.01-.16l1.37-1.37s.06-.04.09-.04c.03,0,.05,0,.07.02l1.59,1.13c.2.14.47.15.68.03.6-.36,1.25-.63,1.92-.81.23-.06.41-.26.45-.5l.33-1.94c0-.06.06-.1.12-.1h1.93c.06,0,.11.04.12.1l.32,1.92c.04.24.22.44.46.5.69.17,1.36.45,1.97.81.21.12.47.11.68-.03l1.59-1.14s.05-.02.07-.02c.02,0,.06,0,.09.04l1.37,1.37s.05.11.01.16l-1.14,1.59c-.14.2-.15.46-.03.68.36.6.63,1.25.8,1.93.06.24.26.42.5.45l1.93.33c.06,0,.1.06.1.12v1.93h0Z"/><path class="cls-1" d="M16.06,11.27c-2.61,0-4.72,2.12-4.72,4.72s2.12,4.72,4.72,4.72,4.72-2.12,4.72-4.72-2.12-4.72-4.72-4.72ZM16.06,19.49c-1.93,0-3.49-1.56-3.49-3.49s1.56-3.49,3.49-3.49,3.49,1.56,3.49,3.49-1.56,3.49-3.49,3.49Z"/></svg>