<?xml version="1.0" encoding="UTF-8"?><svg id="speaker-unmuted-3" xmlns="http://www.w3.org/2000/svg" viewBox="0 0 32 32"><defs><style>.cls-1{fill:none;stroke:#000;stroke-miterlimit:10;stroke-width:2.2px;}.cls-2{fill:#000;stroke-width:0px;}</style></defs><g id="Icon"><path class="cls-1" d="M16.79,20.73c1.26-1.18,2.05-2.86,2.05-4.72s-.8-3.56-2.07-4.74"/><path class="cls-1" d="M20.38,7.67c2.18,2.11,3.54,5.06,3.54,8.34s-1.35,6.22-3.53,8.32"/><path class="cls-1" d="M23.97,4.09c3.1,3.02,5.03,7.25,5.03,11.92s-1.92,8.89-5.02,11.91"/><path class="cls-2" d="M10,6l-5,5H1v10h4l5,5h1s0-20,0-20h-1ZM9,21.94l-3-2.94h-3v-6h3l3-3v11.94Z"/></g></svg>